<svg height="512" viewBox="0 0 128 128" width="512" xmlns="http://www.w3.org/2000/svg"><g><path d="m50.983 40.905a6.174 6.174 0 1 0 -6.174 6.174 6.181 6.181 0 0 0 6.174-6.174zm-8.848 0a2.674 2.674 0 1 1 2.674 2.674 2.677 2.677 0 0 1 -2.674-2.674z"/><path d="m25.328 34.73a6.175 6.175 0 1 0 6.172 6.175 6.182 6.182 0 0 0 -6.172-6.175zm0 8.849a2.675 2.675 0 1 1 2.672-2.674 2.678 2.678 0 0 1 -2.672 2.674z"/><path d="m64.29 47.079a6.175 6.175 0 1 0 -6.175-6.174 6.181 6.181 0 0 0 6.175 6.174zm0-8.849a2.675 2.675 0 1 1 -2.675 2.675 2.677 2.677 0 0 1 2.675-2.675z"/><path d="m113.6 99.923c6.361-5.657 9.846-12.854 9.846-20.4 0-16.978-17.694-30.814-39.579-31.094a24.428 24.428 0 0 0 1.2-7.525c-.006-17.152-18.067-31.104-40.258-31.104s-40.252 13.952-40.252 31.105c0 7.544 3.485 14.741 9.846 20.4l-7.452 15.781a1.75 1.75 0 0 0 2.349 2.322l20.117-9.754a50.3 50.3 0 0 0 14.704 2.346 24.581 24.581 0 0 0 -1.183 7.525c0 17.153 18.058 31.108 40.253 31.108a50.436 50.436 0 0 0 15.395-2.358l20.117 9.754a1.75 1.75 0 0 0 2.346-2.322zm-85.077-33.723-16.289 7.9 5.9-12.5a1.75 1.75 0 0 0 -.47-2.1c-6.2-5.1-9.612-11.7-9.612-18.586.005-15.232 16.492-27.614 36.757-27.614s36.752 12.382 36.752 27.605-16.487 27.607-36.752 27.607a46.824 46.824 0 0 1 -14.964-2.4 1.762 1.762 0 0 0 -1.322.088zm70.954 38.62a1.754 1.754 0 0 0 -1.322-.084 46.838 46.838 0 0 1 -14.964 2.4c-20.265 0-36.753-12.385-36.753-27.608a21.205 21.205 0 0 1 1.422-7.61c15.845-.924 29.154-8.96 34.581-19.983.25 0 .5-.014.75-.014 20.265 0 36.752 12.385 36.752 27.607 0 6.882-3.414 13.483-9.612 18.587a1.751 1.751 0 0 0 -.47 2.1l5.905 12.5z"/><path d="m83.191 73.35a6.175 6.175 0 1 0 6.174 6.174 6.181 6.181 0 0 0 -6.174-6.174zm0 8.849a2.675 2.675 0 1 1 2.674-2.675 2.678 2.678 0 0 1 -2.674 2.676z"/><path d="m102.672 73.35a6.175 6.175 0 1 0 6.175 6.174 6.181 6.181 0 0 0 -6.175-6.174zm0 8.849a2.675 2.675 0 1 1 2.675-2.675 2.677 2.677 0 0 1 -2.675 2.676z"/><path d="m63.71 73.35a6.175 6.175 0 1 0 6.175 6.174 6.181 6.181 0 0 0 -6.175-6.174zm0 8.849a2.675 2.675 0 1 1 2.675-2.675 2.677 2.677 0 0 1 -2.675 2.676z"/></g></svg>