<svg id="Layer_1" enable-background="new 0 0 512 512" height="512" viewBox="0 0 512 512" width="512" xmlns="http://www.w3.org/2000/svg"><g><g><circle cx="269.71" cy="418.5" r="10"/><path d="m508.069 114.04c-2.52-5.96-6.119-11.3-10.72-15.89-4.59-4.6-9.93-8.2-15.89-10.72-6.16-2.61-12.71-3.93-19.46-3.93h-411.999c-6.75 0-13.3 1.32-19.46 3.93-5.96 2.52-11.3 6.12-15.89 10.71-4.6 4.6-8.2 9.94-10.72 15.9-2.61 6.16-3.93 12.71-3.93 19.46v245c0 6.75 1.32 13.3 3.93 19.46 2.52 5.96 6.12 11.3 10.72 15.89 4.59 4.6 9.93 8.2 15.89 10.72 6.16 2.61 12.71 3.93 19.46 3.93h174.71c5.52 0 10-4.49 10-10s-4.48-10-10-10h-174.71c-16.51-.03-29.97-13.49-30-30v-235h472v235c-.03 16.51-13.49 29.97-30 30h-147.29c-5.51 0-10 4.49-10 10s4.49 10 10 10h147.29c6.75 0 13.3-1.32 19.46-3.93 5.96-2.52 11.3-6.12 15.89-10.72 4.601-4.59 8.2-9.93 10.72-15.89 2.61-6.16 3.931-12.71 3.931-19.46v-245c-.001-6.75-1.321-13.3-3.932-19.46zm-458.069-10.54h412c13.005.023 24.113 8.383 28.259 20h-468.518c4.146-11.617 15.253-19.977 28.259-20z"/><circle cx="395" cy="338" r="10"/><circle cx="350" cy="338" r="10"/><circle cx="260" cy="338" r="10"/><circle cx="305" cy="338" r="10"/><path d="m260 292h68c5.51 0 10-4.49 10-10s-4.49-10-10-10h-68c-5.51 0-10 4.49-10 10s4.49 10 10 10z"/><path d="m260 252h135c5.51 0 10-4.49 10-10s-4.49-10-10-10h-135c-5.51 0-10 4.49-10 10s4.49 10 10 10z"/><path d="m260 212h135c5.51 0 10-4.49 10-10s-4.49-10-10-10h-135c-5.51 0-10 4.49-10 10s4.49 10 10 10z"/><path d="m55 331c0 5.523 4.477 10 10 10h120c5.523 0 10-4.477 10-10 0-27.386-15.817-51.135-38.788-62.63 8.491-8.19 13.788-19.67 13.788-32.37 0-24.813-20.187-45-45-45s-45 20.187-45 45c0 12.7 5.297 24.18 13.788 32.37-22.971 11.495-38.788 35.244-38.788 62.63zm45-95c0-13.785 11.215-25 25-25s25 11.215 25 25-11.215 25-25 25-25-11.215-25-25zm25 45c24.146 0 44.349 17.206 48.996 40h-97.992c4.647-22.794 24.85-40 48.996-40z"/></g></g></svg>